<?xml version="1.0" standalone="no"?><svg xmlns="http://www.w3.org/2000/svg" viewBox="0 0 1440 320"><path fill="#482CFF" fill-opacity="1" d="M0,96L34.3,128C68.6,160,137,224,206,229.3C274.3,235,343,181,411,176C480,171,549,213,617,213.3C685.7,213,754,171,823,149.3C891.4,128,960,128,1029,106.7C1097.1,85,1166,43,1234,21.3C1302.9,0,1371,0,1406,0L1440,0L1440,320L1405.7,320C1371.4,320,1303,320,1234,320C1165.7,320,1097,320,1029,320C960,320,891,320,823,320C754.3,320,686,320,617,320C548.6,320,480,320,411,320C342.9,320,274,320,206,320C137.1,320,69,320,34,320L0,320Z"></path></svg>